<svg viewBox="0 0 1200 600" width="1200" height="600" xmlns="http://www.w3.org/2000/svg">
  <rect x="0" y="0" width="1200" height="600" fill="#0f1720"/>
  <text x="600" y="45" font-size="24" font-family="Georgia, serif" font-weight="bold" fill="#f5f2ea" text-anchor="middle">Evolu&ccedil;&atilde;o dos Scores SWE-bench (2024-2026)</text>

  <!-- Eixo Y -->
  <line x1="120" y1="520" x2="1100" y2="520" stroke="#3a4a5a" stroke-width="2"/>
  <line x1="120" y1="520" x2="120" y2="100" stroke="#3a4a5a" stroke-width="2"/>
  
  <!-- Labels Y -->
  <text x="105" y="524" font-size="12" font-family="Arial, sans-serif" fill="#6a7a8a" text-anchor="end">0%</text>
  <text x="105" y="406" font-size="12" font-family="Arial, sans-serif" fill="#6a7a8a" text-anchor="end">25%</text>
  <text x="105" y="288" font-size="12" font-family="Arial, sans-serif" fill="#6a7a8a" text-anchor="end">50%</text>
  <text x="105" y="170" font-size="12" font-family="Arial, sans-serif" fill="#6a7a8a" text-anchor="end">75%</text>
  <text x="105" y="105" font-size="12" font-family="Arial, sans-serif" fill="#6a7a8a" text-anchor="end">100%</text>
  <line x1="120" y1="400" x2="1100" y2="400" stroke="#1c2a3a" stroke-width="1" stroke-dasharray="5,5"/>
  <line x1="120" y1="280" x2="1100" y2="280" stroke="#1c2a3a" stroke-width="1" stroke-dasharray="5,5"/>
  <line x1="120" y1="160" x2="1100" y2="160" stroke="#1c2a3a" stroke-width="1" stroke-dasharray="5,5"/>

  <!-- Barras 2024 -->
  <text x="260" y="550" font-size="13" font-family="Georgia, serif" fill="#b9c2cc" text-anchor="middle">2024</text>
  <rect x="200" y="460" width="50" height="60" rx="4" fill="#3a4a5a"/>
  <text x="225" y="450" font-size="11" font-family="Arial, sans-serif" fill="#b9c2cc" text-anchor="middle">33%</text>
  <rect x="270" y="400" width="50" height="120" rx="4" fill="#2a5a7a"/>
  <text x="295" y="390" font-size="11" font-family="Arial, sans-serif" fill="#b9c2cc" text-anchor="middle">49%</text>

  <!-- Barras 2025 -->
  <text x="520" y="550" font-size="13" font-family="Georgia, serif" fill="#b9c2cc" text-anchor="middle">2025</text>
  <rect x="440" y="340" width="50" height="180" rx="4" fill="#3a4a5a"/>
  <text x="465" y="330" font-size="11" font-family="Arial, sans-serif" fill="#b9c2cc" text-anchor="middle">62%</text>
  <rect x="500" y="220" width="50" height="300" rx="4" fill="#2a5a7a"/>
  <text x="525" y="210" font-size="11" font-family="Arial, sans-serif" fill="#b9c2cc" text-anchor="middle">78%</text>
  <rect x="560" y="160" width="50" height="360" rx="4" fill="#e8b94a" opacity="0.7"/>
  <text x="585" y="150" font-size="11" font-family="Arial, sans-serif" fill="#e8b94a" text-anchor="middle">85%</text>

  <!-- Barras 2026 -->
  <text x="800" y="550" font-size="13" font-family="Georgia, serif" fill="#b9c2cc" text-anchor="middle">2026</text>
  <rect x="720" y="160" width="50" height="360" rx="4" fill="#3a4a5a"/>
  <text x="745" y="150" font-size="11" font-family="Arial, sans-serif" fill="#b9c2cc" text-anchor="middle">88%</text>
  <rect x="780" y="124" width="50" height="396" rx="4" fill="#e8b94a" opacity="0.7"/>
  <text x="805" y="114" font-size="11" font-family="Arial, sans-serif" fill="#e8b94a" text-anchor="middle">95.5%</text>
  <rect x="840" y="118" width="50" height="402" rx="4" fill="#e8b94a"/>
  <text x="865" y="108" font-size="11" font-family="Arial, sans-serif" font-weight="bold" fill="#e8b94a" text-anchor="middle">96%</text>

  <!-- Legenda -->
  <rect x="940" y="140" width="20" height="20" rx="3" fill="#3a4a5a"/>
  <text x="970" y="155" font-size="13" font-family="Arial, sans-serif" fill="#b9c2cc" text-anchor="start">Original</text>
  <rect x="940" y="170" width="20" height="20" rx="3" fill="#2a5a7a"/>
  <text x="970" y="185" font-size="13" font-family="Arial, sans-serif" fill="#b9c2cc" text-anchor="start">Verified</text>
  <rect x="940" y="200" width="20" height="20" rx="3" fill="#e8b94a"/>
  <text x="970" y="215" font-size="13" font-family="Arial, sans-serif" fill="#e8b94a" text-anchor="start">Verified (Frontier)</text>

  <text x="600" y="585" font-size="12" font-family="Arial, sans-serif" fill="#6a7a8a" text-anchor="middle">Fonte: SWE-bench 2024-2026 &bull; Scores dos modelos frontier (Claude, GPT, Gemini)</text>
</svg>