<svg xmlns="http://www.w3.org/2000/svg" viewBox="0 0 800 500" font-family="system-ui, sans-serif">
  <defs>
    <linearGradient id="bg" x1="0" y1="0" x2="1" y2="1"><stop offset="0%" stop-color="#0a0a1a"/><stop offset="100%" stop-color="#1a1a3a"/></linearGradient>
    <marker id="arrow" viewBox="0 0 10 10" refX="10" refY="5" markerWidth="8" markerHeight="8" orient="auto"><path d="M 0 0 L 10 5 L 0 10 z" fill="#6c63ff"/></marker>
  </defs>
  <rect width="800" height="500" fill="url(#bg)" rx="12"/>
  <text x="400" y="45" text-anchor="middle" fill="#e0e0ff" font-size="18" font-weight="bold">Fluxo Spec-to-Code: Especificação → Código → Validação</text>
  <rect x="50" y="100" width="180" height="80" rx="8" fill="#2a2a5a" stroke="#6c63ff" stroke-width="2"/>
  <text x="140" y="138" text-anchor="middle" fill="#e0e0ff" font-size="14" font-weight="bold">Especificação</text>
  <text x="140" y="158" text-anchor="middle" fill="#8888bb" font-size="11">SPEC.md / CLAUDE.md</text>
  <line x1="230" y1="140" x2="290" y2="140" stroke="#6c63ff" stroke-width="2" marker-end="url(#arrow)"/>
  <rect x="295" y="100" width="180" height="80" rx="8" fill="#2a2a5a" stroke="#00d4aa" stroke-width="2"/>
  <text x="385" y="138" text-anchor="middle" fill="#e0e0ff" font-size="14" font-weight="bold">Plano de Execução</text>
  <text x="385" y="158" text-anchor="middle" fill="#8888bb" font-size="11">Tarefas Atômicas</text>
  <line x1="475" y1="140" x2="535" y2="140" stroke="#6c63ff" stroke-width="2" marker-end="url(#arrow)"/>
  <rect x="540" y="100" width="180" height="80" rx="8" fill="#2a2a5a" stroke="#ff6b9d" stroke-width="2"/>
  <text x="630" y="138" text-anchor="middle" fill="#e0e0ff" font-size="14" font-weight="bold">Implementação</text>
  <text x="630" y="158" text-anchor="middle" fill="#8888bb" font-size="11">Código + Testes</text>
  <line x1="630" y1="180" x2="630" y2="240" stroke="#ff6b9d" stroke-width="2" marker-end="url(#arrow)"/>
  <rect x="540" y="245" width="180" height="80" rx="8" fill="#2a2a5a" stroke="#ffaa33" stroke-width="2"/>
  <text x="630" y="283" text-anchor="middle" fill="#e0e0ff" font-size="14" font-weight="bold">Validação</text>
  <text x="630" y="303" text-anchor="middle" fill="#8888bb" font-size="11">Testes + Lint + Types</text>
  <path d="M 720 285 Q 760 285 760 340 Q 760 395 720 395" fill="none" stroke="#ff6b9d" stroke-width="1.5" stroke-dasharray="5,3" marker-end="url(#arrow)"/>
  <rect x="540" y="355" width="180" height="80" rx="8" fill="#3a2a1a" stroke="#ffaa33" stroke-width="1.5" stroke-dasharray="4,3"/>
  <text x="630" y="393" text-anchor="middle" fill="#ffaa33" font-size="12">Loop de Auto-Correção</text>
  <text x="630" y="413" text-anchor="middle" fill="#8888bb" font-size="10">3-5 iterações típicas</text>
  <text x="400" y="480" text-anchor="middle" fill="#555577" font-size="11">Diagrama 1 — Fluxo Spec-to-Code</text>
</svg>